<?xml version="1.0" encoding="utf-8"?>
<!-- Generator: Adobe Illustrator 25.2.1, SVG Export Plug-In . SVG Version: 6.00 Build 0)  -->
<svg version="1.1" id="Capa_1" xmlns="http://www.w3.org/2000/svg" xmlns:xlink="http://www.w3.org/1999/xlink" x="0px" y="0px"
	 viewBox="0 0 1026 1280" style="enable-background:new 0 0 1026 1280;" xml:space="preserve">
<style type="text/css">
	.st0{fill:#FFFFFF;stroke:#020202;stroke-miterlimit:1;}
</style>
<g transform="translate(0.000000,1280.000000) scale(0.100000,-0.100000)">
	<path class="st0" d="M5018.9,12780c-98-28-166-67-231-131c-103-103-147-222-138-380c15-250,221-440,478-440c196,0,352,100,438,280
		c36,76,37,79,37,197c-1,101-4,129-24,177c-30,77-89,154-159,207c-64,50-98,65-194,92C5143.9,12805,5102.9,12805,5018.9,12780z"/>
	<path class="st0" d="M3372.9,12754c-246-29-375-62-517-134c-201-102-470-279-1025-676c-714-510-1086-739-1502-923
		c-215-95-317-145-326-161c-11-17,72-95,125-118c104-45,265-50,479-16c257,42,680,260,1275,658c364,243,512,372,641,556
		c50,71,61,82,84,79l26-3l1-135c4-276,79-466,256-642c75-75,101-94,190-137c143-68,220-85,398-85c139-1,145-2,148-22
		c2-12-11-38-32-63c-60-71-60-151-1-268c96-192,319-370,550-438c164-49,391-34,562,36c39,17,73,36,75,42c5,14-11,749-16,754
		c-2,2-39-5-82-16c-158-40-293-37-416,9c-165,62-288,231-288,396v66l133,136c177,184,227,280,227,440c0,125-46,253-141,393
		c-103,152-275,241-521,269C3596.9,12760,3436.9,12762,3372.9,12754z"/>
	<path class="st0" d="M6567.9,12751c-237-30-409-121-509-269c-158-233-183-436-78-636c22-40,75-105,165-197l132-136v-66
		c0-165-123-334-288-396c-123-46-258-49-416-9c-43,11-80,18-82,16c-5-5-21-740-16-754c6-18,137-69,227-88c50-11,125-17,200-17
		c101,0,134,4,210,27c231,68,454,246,550,438c59,117,59,197-1,268c-21,25-34,51-32,63c3,20,9,21,148,22c178,0,255,17,398,85
		c89,43,115,62,190,137c177,176,252,366,256,642l1,135l26,3c23,3,34-8,84-79c129-184,277-313,641-556c595-398,1018-616,1275-658
		c214-34,375-29,479,16c53,23,136,101,125,118c-9,16-111,66-326,161c-416,184-788,413-1502,923c-775,555-1016,701-1257,762
		C6999.9,12750,6717.9,12771,6567.9,12751z"/>
	<path class="st0" d="M4813.9,11723c-2-4-1-165,4-357c5-193,14-541,20-775c15-642,29-1212,40-1640c6-212,10-434,10-494v-108l-32,6
		c-66,13-316,99-418,145c-314,140-486,302-566,536c-23,67-28,102-31,215c-4,111-2,139,10,155c15,20,17,19,64-26
		c98-94,183-123,337-117c92,3,108,7,178,41c195,94,310,242,248,320c-74,93-298,143-530,117c-203-22-341-88-480-229
		c-217-219-271-514-148-805c108-255,398-525,781-726c26-14,47-30,47-36s-40-41-89-77c-346-258-514-574-498-937
		c16-382,199-690,577-974c74-56,150-111,168-121c17-11,32-25,32-31c0-7-46-45-102-85c-113-81-267-223-333-310
		c-173-224-224-494-150-798c72-294,206-516,459-758c69-66,126-123,126-127s-28-39-63-79c-170-195-237-361-237-587
		c0-306,132-518,493-790c37-28,67-54,67-58s-48-55-107-112c-188-184-253-321-253-531c0-103,28-227,72-312c43-86,151-227,164-215
		c3,4-3,63-15,130c-52,290-35,403,82,556c67,88,279,254,299,234c8-8,15-227,38-1192c5-234,12-503,16-597l6-173h28h28l6,173
		c4,94,11,363,16,597c23,980,30,1184,39,1193c18,18,217-135,288-222c92-113,129-224,120-361c-3-47-16-140-28-208
		c-12-67-18-126-14-130c13-13,118,126,163,215c44,85,72,209,72,312c0,215-65,350-257,535c-57,55-103,103-103,108c0,4,30,30,68,58
		c361,274,493,484,493,790c1,223-68,392-238,587c-35,40-63,75-63,79s57,61,126,127c253,242,387,463,459,757c74,305,24,575-150,799
		c-66,87-220,229-332,310c-57,40-103,78-103,85c0,6,15,20,32,31c155,91,454,357,535,475c211,310,268,685,153,1003
		c-74,201-228,394-441,554c-49,36-89,71-89,77s21,22,48,36c202,106,408,254,543,389c202,204,301,417,300,651c0,119-18,189-78,310
		c-84,169-251,313-434,374c-218,73-546,49-675-49c-82-62-73-119,34-225c59-58,98-86,167-120c86-42,95-45,191-48
		c155-6,239,23,337,117c47,45,49,46,64,26c12-16,14-44,10-155c-3-113-8-148-31-215c-80-234-249-394-566-536c-106-47-351-133-415-145
		l-35-6v103c0,57,7,370,15,694c8,325,19,784,25,1020c6,237,15,603,20,815s11,466,12,565l3,180l-312,3
		C4959.9,11730,4816.9,11728,4813.9,11723z M4923.9,7061c10-356,16-735,14-797c0-21-18-15-81,28c-152,103-258,217-325,352
		c-119,234-73,486,124,685c74,74,216,175,241,170C4910.9,7496,4913.9,7446,4923.9,7061z M5453.9,7449c216-145,334-335,334-541
		c0-233-138-447-402-625c-50-34-68-39-69-19c-3,51,22,1209,27,1225C5349.9,7511,5374.9,7502,5453.9,7449z M4961.9,5293
		c3-5,10-197,15-428c15-605,15-623,8-630c-11-11-157,98-202,151c-104,121-165,269-165,398c0,170,74,304,248,453
		C4941.9,5302,4952.9,5308,4961.9,5293z M5389.9,5237c174-149,248-283,248-453c0-140-73-304-185-417c-65-66-171-143-182-132
		c-4,3-6,46-5,94c15,660,24,957,28,964C5302.9,5308,5313.9,5301,5389.9,5237z M5023.9,2964c5-224,4-313-4-313c-19,0-123,142-155,210
		c-41,87-44,190-7,265c29,60,136,174,149,160C5011.9,3280,5019.9,3135,5023.9,2964z M5330.9,3221c70-78,92-131,92-220
		c-1-63-6-86-31-140c-33-69-138-210-156-210c-8,0-9,89-4,312c4,172,10,316,12,320C5251.9,3296,5282.9,3274,5330.9,3221z"/>
	<path class="st0" d="M2433.9,11666c-15-8-78-59-140-113c-501-440-897-713-1287-888c-147-66-167-82-154-120c15-41,68-62,185-75
		c121-13,259-1,369,33c176,54,571,288,886,526c209,158,300,236,319,276c17,36,17,36-22,124c-40,89-66,162-77,220
		C2504.9,11686,2481.9,11691,2433.9,11666z"/>
	<path class="st0" d="M7742.9,11649c-11-58-37-131-77-220c-39-88-39-88-22-124c19-40,110-118,319-276c315-238,710-472,886-526
		c110-34,248-46,369-33c117,13,170,34,185,75c13,38-7,54-154,120c-392,176-774,439-1294,894c-65,57-129,107-143,112
		C7765.9,11689,7749.9,11683,7742.9,11649z"/>
	<path class="st0" d="M2504.9,11063c-289-280-479-425-842-638c-86-51-100-63-103-88c-2-16,2-32,9-37c7-4,51-13,98-20
		c250-35,481,46,792,277c104,77,441,357,473,392c31,35,15,65-61,110c-38,22-93,66-123,96c-30,31-63,56-73,56
		C2663.9,11211,2590.9,11148,2504.9,11063z"/>
	<path class="st0" d="M7503.9,11152c-32-32-87-76-122-96c-73-43-89-72-58-107c31-34,368-314,473-392c311-231,542-312,792-277
		c47,7,91,16,98,20c7,5,11,21,9,37c-3,25-17,37-103,88c-363,213-553,358-842,638c-86,85-159,148-170,148
		C7570.9,11211,7535.9,11184,7503.9,11152z"/>
	<path class="st0" d="M3045.9,10938c-13-5-47-39-76-77c-91-116-277-304-452-455c-92-80-171-152-174-160c-25-65,112-103,255-71
		c146,32,375,177,556,350c159,152,239,267,231,334c-3,25-8,28-63,35c-33,4-104,18-157,30C3101.9,10939,3060.9,10944,3045.9,10938z"
		/>
	<path class="st0" d="M7087.9,10924c-52-12-122-26-155-30c-55-7-60-10-63-35c-8-67,72-182,231-334c181-173,410-318,556-350
		c143-32,280,6,255,71c-3,8-82,80-174,160c-175,150-361,338-452,455c-29,38-64,72-78,77C7190.9,10944,7151.9,10939,7087.9,10924z"/>
</g>
</svg>
