<?xml version="1.0" encoding="utf-8"?>
<!-- Generator: Adobe Illustrator 25.2.1, SVG Export Plug-In . SVG Version: 6.00 Build 0)  -->
<svg version="1.1" id="Capa_1" xmlns="http://www.w3.org/2000/svg" xmlns:xlink="http://www.w3.org/1999/xlink" x="0px" y="0px"
	 viewBox="0 0 172 159.4" style="enable-background:new 0 0 172 159.4;" xml:space="preserve">
<style type="text/css">
	.st0{fill:#0069A6;}
</style>
<g transform="translate(0.000000,1280.000000) scale(0.100000,-0.100000)">
	<path class="st0" d="M848.9,12629.9c-10.9-3.1-18.5-7.5-25.7-14.6c-11.5-11.5-16.4-24.7-15.4-42.3c1.7-27.8,24.6-49,53.2-49
		c21.8,0,39.2,11.1,48.7,31.2c4,8.5,4.1,8.8,4.1,21.9c-0.1,11.2-0.4,14.4-2.7,19.7c-3.3,8.6-9.9,17.1-17.7,23
		c-7.1,5.6-10.9,7.2-21.6,10.2C862.8,12632.7,858.2,12632.7,848.9,12629.9z"/>
	<path class="st0" d="M665.7,12627c-27.4-3.2-41.7-6.9-57.5-14.9c-22.4-11.4-52.3-31-114.1-75.2c-79.5-56.8-120.9-82.2-167.2-102.7
		c-23.9-10.6-35.3-16.1-36.3-17.9c-1.2-1.9,8-10.6,13.9-13.1c11.6-5,29.5-5.6,53.3-1.8c28.6,4.7,75.7,28.9,141.9,73.2
		c40.5,27,57,41.4,71.3,61.9c5.6,7.9,6.8,9.1,9.3,8.8l2.9-0.3l0.1-15c0.4-30.7,8.8-51.9,28.5-71.4c8.3-8.3,11.2-10.5,21.1-15.2
		c15.9-7.6,24.5-9.5,44.3-9.5c15.5-0.1,16.1-0.2,16.5-2.4c0.2-1.3-1.2-4.2-3.6-7c-6.7-7.9-6.7-16.8-0.1-29.8
		c10.7-21.4,35.5-41.2,61.2-48.7c18.3-5.5,43.5-3.8,62.5,4c4.3,1.9,8.1,4,8.3,4.7c0.6,1.6-1.2,83.4-1.8,83.9
		c-0.2,0.2-4.3-0.6-9.1-1.8c-17.6-4.5-32.6-4.1-46.3,1c-18.4,6.9-32.1,25.7-32.1,44.1v7.3l14.8,15.1c19.7,20.5,25.3,31.2,25.3,49
		c0,13.9-5.1,28.2-15.7,43.7c-11.5,16.9-30.6,26.8-58,29.9C690.6,12627.7,672.8,12627.9,665.7,12627z"/>
	<path class="st0" d="M1021.3,12626.7c-26.4-3.3-45.5-13.5-56.6-29.9c-17.6-25.9-20.4-48.5-8.7-70.8c2.4-4.5,8.3-11.7,18.4-21.9
		l14.7-15.1v-7.3c0-18.4-13.7-37.2-32.1-44.1c-13.7-5.1-28.7-5.5-46.3-1c-4.8,1.2-8.9,2-9.1,1.8c-0.6-0.6-2.3-82.4-1.8-83.9
		c0.7-2,15.2-7.7,25.3-9.8c5.6-1.2,13.9-1.9,22.3-1.9c11.2,0,14.9,0.4,23.4,3c25.7,7.6,50.5,27.4,61.2,48.7
		c6.6,13,6.6,21.9-0.1,29.8c-2.3,2.8-3.8,5.7-3.6,7c0.3,2.2,1,2.3,16.5,2.4c19.8,0,28.4,1.9,44.3,9.5c9.9,4.8,12.8,6.9,21.1,15.2
		c19.7,19.6,28,40.7,28.5,71.4l0.1,15l2.9,0.3c2.6,0.3,3.8-0.9,9.3-8.8c14.4-20.5,30.8-34.8,71.3-61.9
		c66.2-44.3,113.3-68.6,141.9-73.2c23.8-3.8,41.7-3.2,53.3,1.8c5.9,2.6,15.1,11.2,13.9,13.1c-1,1.8-12.4,7.3-36.3,17.9
		c-46.3,20.5-87.7,46-167.2,102.7c-86.2,61.8-113.1,78-139.9,84.8C1069.3,12626.5,1037.9,12628.9,1021.3,12626.7z"/>
	<path class="st0" d="M826.1,12512.3c-0.2-0.4-0.1-18.4,0.4-39.7c0.6-21.5,1.6-60.2,2.2-86.2c1.7-71.4,3.2-134.9,4.5-182.5
		c0.7-23.6,1.1-48.3,1.1-55v-12l-3.6,0.7c-7.3,1.4-35.2,11-46.5,16.1c-34.9,15.6-54.1,33.6-63,59.6c-2.6,7.5-3.1,11.4-3.4,23.9
		c-0.4,12.4-0.2,15.5,1.1,17.2c1.7,2.2,1.9,2.1,7.1-2.9c10.9-10.5,20.4-13.7,37.5-13c10.2,0.3,12,0.8,19.8,4.6
		c21.7,10.5,34.5,26.9,27.6,35.6c-8.2,10.3-33.2,15.9-59,13c-22.6-2.4-37.9-9.8-53.4-25.5c-24.1-24.4-30.2-57.2-16.5-89.6
		c12-28.4,44.3-58.4,86.9-80.8c2.9-1.6,5.2-3.3,5.2-4s-4.5-4.6-9.9-8.6c-38.5-28.7-57.2-63.9-55.4-104.3
		c1.8-42.5,22.1-76.8,64.2-108.4c8.2-6.2,16.7-12.4,18.7-13.5c1.9-1.2,3.6-2.8,3.6-3.5c0-0.8-5.1-5-11.4-9.5
		c-12.6-9-29.7-24.8-37.1-34.5c-19.3-24.9-24.9-55-16.7-88.8c8-32.7,22.9-57.4,51.1-84.4c7.7-7.3,14-13.7,14-14.1s-3.1-4.3-7-8.8
		c-18.9-21.7-26.4-40.2-26.4-65.3c0-34.1,14.7-57.6,54.9-87.9c4.1-3.1,7.5-6,7.5-6.5s-5.3-6.1-11.9-12.5
		c-20.9-20.5-28.2-35.7-28.2-59.1c0-11.5,3.1-25.3,8-34.7c4.8-9.6,16.8-25.3,18.3-23.9c0.3,0.4-0.3,7-1.7,14.5
		c-5.8,32.3-3.9,44.8,9.1,61.9c7.5,9.8,31,28.3,33.3,26c0.9-0.9,1.7-25.3,4.2-132.7c0.6-26,1.3-56,1.8-66.4l0.7-19.3h3.1h3.1
		l0.7,19.3c0.4,10.5,1.2,40.4,1.8,66.4c2.6,109.1,3.3,131.8,4.3,132.8c2,2,24.1-15,32.1-24.7c10.2-12.6,14.4-24.9,13.4-40.2
		c-0.3-5.2-1.8-15.6-3.1-23.1s-2-14-1.6-14.5c1.4-1.4,13.1,14,18.1,23.9c4.9,9.5,8,23.3,8,34.7c0,23.9-7.2,38.9-28.6,59.5
		c-6.3,6.1-11.5,11.5-11.5,12c0,0.4,3.3,3.3,7.6,6.5c40.2,30.5,54.9,53.9,54.9,87.9c0.1,24.8-7.6,43.6-26.5,65.3
		c-3.9,4.5-7,8.3-7,8.8s6.3,6.8,14,14.1c28.2,26.9,43.1,51.5,51.1,84.2c8.2,33.9,2.7,64-16.7,88.9c-7.3,9.7-24.5,25.5-36.9,34.5
		c-6.3,4.5-11.5,8.7-11.5,9.5c0,0.7,1.7,2.2,3.6,3.5c17.2,10.1,50.5,39.7,59.5,52.9c23.5,34.5,29.8,76.2,17,111.6
		c-8.2,22.4-25.4,43.8-49.1,61.7c-5.5,4-9.9,7.9-9.9,8.6c0,0.7,2.3,2.4,5.3,4c22.5,11.8,45.4,28.3,60.4,43.3
		c22.5,22.7,33.5,46.4,33.4,72.4c0,13.2-2,21-8.7,34.5c-9.3,18.8-27.9,34.8-48.3,41.6c-24.3,8.1-60.8,5.5-75.1-5.5
		c-9.1-6.9-8.1-13.2,3.8-25c6.6-6.5,10.9-9.6,18.6-13.4c9.6-4.7,10.6-5,21.3-5.3c17.2-0.7,26.6,2.6,37.5,13c5.2,5,5.5,5.1,7.1,2.9
		c1.3-1.8,1.6-4.9,1.1-17.2c-0.3-12.6-0.9-16.5-3.4-23.9c-8.9-26-27.7-43.8-63-59.6c-11.8-5.2-39.1-14.8-46.2-16.1l-3.9-0.7v11.5
		c0,6.3,0.8,41.2,1.7,77.2c0.9,36.2,2.1,87.2,2.8,113.5c0.7,26.4,1.7,67.1,2.2,90.7c0.6,23.6,1.2,51.9,1.3,62.9l0.3,20l-34.7,0.3
		C842.3,12513,826.4,12512.8,826.1,12512.3z M838.3,11993.4c1.1-39.6,1.8-81.8,1.6-88.7c0-2.3-2-1.7-9,3.1
		c-16.9,11.5-28.7,24.1-36.2,39.2c-13.2,26-8.1,54.1,13.8,76.2c8.2,8.2,24,19.5,26.8,18.9
		C836.9,12041.8,837.2,12036.3,838.3,11993.4z M897.3,12036.6c24-16.1,37.2-37.3,37.2-60.2c0-25.9-15.4-49.7-44.7-69.6
		c-5.6-3.8-7.6-4.3-7.7-2.1c-0.3,5.7,2.4,134.5,3,136.3C885.7,12043.5,888.5,12042.5,897.3,12036.6z M842.5,11796.7
		c0.3-0.6,1.1-21.9,1.7-47.6c1.7-67.3,1.7-69.3,0.9-70.1c-1.2-1.2-17.5,10.9-22.5,16.8c-11.6,13.5-18.4,29.9-18.4,44.3
		c0,18.9,8.2,33.8,27.6,50.4C840.3,11797.7,841.5,11798.4,842.5,11796.7z M890.2,11790.5c19.4-16.6,27.6-31.5,27.6-50.4
		c0-15.6-8.1-33.8-20.6-46.4c-7.2-7.3-19-15.9-20.3-14.7c-0.4,0.3-0.7,5.1-0.6,10.5c1.7,73.4,2.7,106.5,3.1,107.3
		C880.5,11798.4,881.7,11797.6,890.2,11790.5z M849.4,11537.5c0.6-24.9,0.4-34.8-0.4-34.8c-2.1,0-13.7,15.8-17.2,23.4
		c-4.6,9.7-4.9,21.1-0.8,29.5c3.2,6.7,15.1,19.4,16.6,17.8C848.1,11572.7,849,11556.5,849.4,11537.5z M883.6,11566.1
		c7.8-8.7,10.2-14.6,10.2-24.5c-0.1-7-0.7-9.6-3.4-15.6c-3.7-7.7-15.4-23.4-17.4-23.4c-0.9,0-1,9.9-0.4,34.7
		c0.4,19.1,1.1,35.2,1.3,35.6C874.8,11574.4,878.2,11572,883.6,11566.1z"/>
	<path class="st0" d="M561.2,12505.9c-1.7-0.9-8.7-6.6-15.6-12.6c-55.8-49-99.8-79.3-143.2-98.8c-16.4-7.3-18.6-9.1-17.1-13.4
		c1.7-4.6,7.6-6.9,20.6-8.3c13.5-1.4,28.8-0.1,41.1,3.7c19.6,6,63.5,32.1,98.6,58.5c23.3,17.6,33.4,26.3,35.5,30.7
		c1.9,4,1.9,4-2.4,13.8c-4.5,9.9-7.3,18-8.6,24.5C569.1,12508.1,566.5,12508.7,561.2,12505.9z"/>
	<path class="st0" d="M1152,12504c-1.2-6.5-4.1-14.6-8.6-24.5c-4.3-9.8-4.3-9.8-2.4-13.8c2.1-4.5,12.2-13.1,35.5-30.7
		c35.1-26.5,79-52.5,98.6-58.5c12.2-3.8,27.6-5.1,41.1-3.7c13,1.4,18.9,3.8,20.6,8.3c1.4,4.2-0.8,6-17.1,13.4
		c-43.6,19.6-86.1,48.9-144,99.5c-7.2,6.3-14.4,11.9-15.9,12.5C1154.6,12508.5,1152.8,12507.8,1152,12504z"/>
	<path class="st0" d="M569.1,12438.8c-32.2-31.2-53.3-47.3-93.7-71c-9.6-5.7-11.1-7-11.5-9.8c-0.2-1.8,0.2-3.6,1-4.1
		c0.8-0.4,5.7-1.4,10.9-2.2c27.8-3.9,53.5,5.1,88.1,30.8c11.6,8.6,49.1,39.7,52.6,43.6c3.4,3.9,1.7,7.2-6.8,12.2
		c-4.2,2.4-10.3,7.3-13.7,10.7c-3.3,3.5-7,6.2-8.1,6.2C586.8,12455.3,578.7,12448.3,569.1,12438.8z"/>
	<path class="st0" d="M1125.4,12448.7c-3.6-3.6-9.7-8.5-13.6-10.7c-8.1-4.8-9.9-8-6.5-11.9c3.4-3.8,41-34.9,52.6-43.6
		c34.6-25.7,60.3-34.7,88.1-30.8c5.2,0.8,10.1,1.8,10.9,2.2c0.8,0.6,1.2,2.3,1,4.1c-0.3,2.8-1.9,4.1-11.5,9.8
		c-40.4,23.7-61.5,39.8-93.7,71c-9.6,9.5-17.7,16.5-18.9,16.5C1132.9,12455.3,1129,12452.3,1125.4,12448.7z"/>
	<path class="st0" d="M629.3,12424.9c-1.4-0.6-5.2-4.3-8.5-8.6c-10.1-12.9-30.8-33.8-50.3-50.6c-10.2-8.9-19-16.9-19.4-17.8
		c-2.8-7.2,12.5-11.5,28.4-7.9c16.2,3.6,41.7,19.7,61.9,39c17.7,16.9,26.6,29.7,25.7,37.2c-0.3,2.8-0.9,3.1-7,3.9
		c-3.7,0.4-11.6,2-17.5,3.3C635.5,12425,631,12425.6,629.3,12424.9z"/>
	<path class="st0" d="M1079.1,12423.3c-5.8-1.3-13.6-2.9-17.2-3.3c-6.1-0.8-6.7-1.1-7-3.9c-0.9-7.5,8-20.3,25.7-37.2
		c20.1-19.3,45.6-35.4,61.9-39c15.9-3.6,31.2,0.7,28.4,7.9c-0.3,0.9-9.1,8.9-19.4,17.8c-19.5,16.7-40.2,37.6-50.3,50.6
		c-3.2,4.2-7.1,8-8.7,8.6C1090.6,12425.6,1086.2,12425,1079.1,12423.3z"/>
</g>
</svg>
